<svg xmlns="http://www.w3.org/2000/svg" viewBox="0 0 300 300" width="300" height="300">
  <!-- Oval/rounded rectangular background -->
  <ellipse cx="150" cy="150" rx="120" ry="145" fill="#6b8e5a" stroke="#5a7a4a" stroke-width="3"/>

  <!-- Celtic Cross matching the screenshot -->
  <g fill="white" stroke="none">

    <!-- Main vertical shaft -->
    <rect x="135" y="40" width="30" height="220"/>

    <!-- Main horizontal crossbeam -->
    <rect x="60" y="135" width="180" height="30"/>

    <!-- Celtic circle - interwoven design -->
    <circle cx="150" cy="150" r="55" fill="none" stroke="white" stroke-width="16"/>

    <!-- Cross arm decorative endings - matching screenshot style -->
    <!-- Top trefoil ending -->
    <circle cx="150" cy="55" r="20"/>
    <circle cx="135" cy="45" r="12"/>
    <circle cx="165" cy="45" r="12"/>

    <!-- Bottom trefoil ending -->
    <circle cx="150" cy="245" r="20"/>
    <circle cx="135" cy="255" r="12"/>
    <circle cx="165" cy="255" r="12"/>

    <!-- Left trefoil ending -->
    <circle cx="75" cy="150" r="20"/>
    <circle cx="65" cy="135" r="12"/>
    <circle cx="65" cy="165" r="12"/>

    <!-- Right trefoil ending -->
    <circle cx="225" cy="150" r="20"/>
    <circle cx="235" cy="135" r="12"/>
    <circle cx="235" cy="165" r="12"/>

    <!-- Center boss/medallion -->
    <circle cx="150" cy="150" r="20"/>

    <!-- Create the interwoven effect by adding green sections -->
    <g fill="#6b8e5a">
      <!-- Gaps in the circle where cross passes through -->
      <rect x="135" y="95" width="30" height="20"/>
      <rect x="135" y="185" width="30" height="20"/>
      <rect x="95" y="135" width="20" height="30"/>
      <rect x="185" y="135" width="20" height="30"/>
    </g>

  </g>
</svg>